<svg xmlns="http://www.w3.org/2000/svg" viewBox="0 0 281 59.6" width="200" height="42.41">
    <title>reputation x — look better online</title>
    <g class="brandmark">
        <path fill="#3a99d8" d="M1 12.2l22.2 22.1h15.1L16.1 12.2z"></path>
        <path fill="#4fca92" d="M1 34.4l22.2-22.1h15.1L16.1 34.4z"></path>
        <path fill="#0071bc" d="M19.7 15.8L1 34.4h15.1l11.1-11.1z"></path>
        <path fill="#3a99d8" d="M19.7 15.8l-7.5 7.5 11 11h15.1z"></path>
        <path fill="#e44d42" d="M1 34.4h15.1l2.8-2.8-7.6-7.5z"></path>
        <path fill="#004266" d="M11.33 24.18l.85-.85 7.5 7.5-.86.84z"></path>
    </g>
    <path class="tagline" fill="#e44d42" d="M125 56.9h-1.4V41.1h1.4v15.8zm12.6-4.9c0 .7-.1 1.4-.4 2.1-.3.6-.6 1.2-1.1 1.6-.5.5-1 .8-1.6 1.1-.6.3-1.3.4-2.1.4a5 5 0 01-2.1-.4c-.6-.3-1.2-.6-1.6-1.1-.5-.5-.8-1-1.1-1.6-.3-.6-.4-1.3-.4-2.1 0-.7.1-1.4.4-2.1.3-.6.6-1.2 1.1-1.6.5-.5 1-.8 1.6-1.1.6-.3 1.3-.4 2.1-.4s1.5.1 2.1.4c.6.3 1.2.6 1.6 1.1a5 5 0 011.5 3.7zm-1.5 0c0-.5-.1-1.1-.3-1.5-.2-.5-.4-.9-.7-1.2s-.7-.6-1.2-.8a4 4 0 00-3 0c-.5.2-.8.5-1.2.8-.3.3-.6.8-.7 1.2l-.3 1.5c0 .5.1 1.1.3 1.5s.4.9.7 1.2c.3.3.7.6 1.2.8a4 4 0 003 0l1.2-.8c.4-.3.6-.8.7-1.2.3-.5.3-1 .3-1.5zm13.4 0c0 .7-.1 1.4-.4 2.1-.3.6-.6 1.2-1.1 1.6-.5.5-1 .8-1.6 1.1-.6.3-1.3.4-2.1.4a5 5 0 01-2.1-.4c-.6-.3-1.2-.6-1.6-1.1-.5-.5-.8-1-1.1-1.6-.3-.6-.4-1.3-.4-2.1 0-.7.1-1.4.4-2.1.3-.6.6-1.2 1.1-1.6.5-.5 1-.8 1.6-1.1.6-.3 1.3-.4 2.1-.4s1.5.1 2.1.4c.6.3 1.2.6 1.6 1.1a5 5 0 011.5 3.7zm-1.5 0c0-.5-.1-1.1-.3-1.5-.2-.5-.4-.9-.7-1.2s-.7-.6-1.2-.8a4 4 0 00-3 0c-.5.2-.8.5-1.2.8-.3.3-.6.8-.7 1.2l-.3 1.5c0 .5.1 1.1.3 1.5s.4.9.7 1.2c.3.3.7.6 1.2.8a4 4 0 003 0l1.2-.8c.4-.3.6-.8.7-1.2l.3-1.5zm4.9-.5l4.6-4.4h2.1l-4.9 4.5 5.4 5.3H158l-5.1-5.2v5.2h-1.4V41.1h1.4v10.4zm13.4-10.4h1.4v7.7l.8-.9 1-.6 1-.3 1-.1c.8 0 1.5.1 2.1.4.6.3 1.2.6 1.6 1.1.5.5.8 1 1.1 1.6.3.6.4 1.3.4 2.1 0 .7-.1 1.4-.4 2.1-.3.6-.6 1.2-1.1 1.6-.5.5-1 .8-1.6 1.1-.6.3-1.3.4-2.1.4l-1-.1-1-.3c-.3-.1-.7-.3-1-.6-.3-.2-.6-.5-.8-.9V57h-1.4V41.1zm9 10.9c0-.5-.1-1.1-.3-1.5s-.4-.9-.7-1.2c-.3-.3-.7-.6-1.2-.8a4.1 4.1 0 00-3.1 0 3.6 3.6 0 00-2 2c-.2.4-.3 1-.3 1.5s.1 1.1.3 1.5l.8 1.2 1.2.8c.4.2 1 .3 1.6.3.6 0 1.1-.1 1.5-.3.5-.2.8-.5 1.2-.8.3-.3.6-.8.7-1.2l.3-1.5zm4.2.4c0 .5.2 1 .4 1.4l.8 1.1c.3.3.7.6 1.1.7s.9.3 1.4.3c.7 0 1.4-.2 1.9-.5s.9-.7 1.2-1.2l1.1.9c-.6.7-1.2 1.3-1.9 1.6s-1.5.5-2.3.5c-.7 0-1.4-.1-2-.4-.6-.3-1.2-.6-1.6-1.1a9 9 0 01-1.1-1.6c-.3-.6-.4-1.3-.4-2.1 0-.7.1-1.4.4-2.1.3-.6.6-1.2 1-1.6.4-.5 1-.8 1.6-1.1a4 4 0 011.9-.4 4.5 4.5 0 013.5 1.5c.4.4.7 1 .9 1.5.2.6.3 1.2.3 1.9v.6h-8.2zm6.7-1.2c0-.9-.3-1.7-.8-2.3a3 3 0 00-2.3-.9c-.4 0-.9.1-1.3.3l-1.1.7-.8 1-.3 1.2h6.6zm8.5-2.9h-2.8v5.8l.1.9.3.5.5.3.6.1.7-.1.7-.3.1 1.3c-.5.2-1.1.4-1.9.4l-.8-.1-.8-.4c-.3-.2-.4-.5-.6-.8-.2-.3-.2-.8-.2-1.3v-6.2h-2.1v-1.3h2.1v-2.8h1.4v2.8h2.8v1.2zm6.4 0h-2.8v5.8l.1.9.3.5.5.3.6.1.7-.1.7-.3.1 1.3c-.5.2-1.1.4-1.9.4l-.8-.1-.8-.4c-.3-.2-.4-.5-.6-.8-.2-.3-.2-.8-.2-1.3v-6.2h-2.1v-1.3h2.1v-2.8h1.4v2.8h2.8v1.2zm2.3 4.1c0 .5.2 1 .4 1.4l.8 1.1c.3.3.7.6 1.1.7s.9.3 1.4.3c.7 0 1.4-.2 1.9-.5s.9-.7 1.2-1.2l1.1.9c-.6.7-1.2 1.3-1.9 1.6s-1.5.5-2.3.5c-.7 0-1.4-.1-2-.4-.6-.3-1.2-.6-1.6-1.1a9 9 0 01-1.1-1.6c-.3-.6-.4-1.3-.4-2.1 0-.7.1-1.4.4-2.1.3-.6.6-1.2 1-1.6.4-.5 1-.8 1.6-1.1a4 4 0 011.9-.4 4.5 4.5 0 013.5 1.5c.4.4.7 1 .9 1.5.2.6.3 1.2.3 1.9v.6h-8.2zm6.7-1.2c0-.9-.3-1.7-.8-2.3a3 3 0 00-2.3-.9c-.4 0-.9.1-1.3.3l-1.1.7-.8 1-.3 1.2h6.6zm3.6-1.1v-1.3l-.1-1.7h1.4v1.8l.4-.8.7-.7.9-.5 1.2-.2 1 .1-.3 1.4-.8-.1c-.5 0-1 .1-1.4.3-.4.2-.7.5-.9.8-.3.3-.4.7-.6 1l-.2 1v5.5h-1.4v-6.6zm21.5 1.9c0 .7-.1 1.4-.4 2.1-.3.6-.6 1.2-1.1 1.6-.5.5-1 .8-1.6 1.1-.6.3-1.3.4-2.1.4a5 5 0 01-2.1-.4c-.6-.3-1.2-.6-1.6-1.1-.5-.5-.8-1-1.1-1.6-.3-.6-.4-1.3-.4-2.1 0-.7.1-1.4.4-2.1.3-.6.6-1.2 1.1-1.6.5-.5 1-.8 1.6-1.1.6-.3 1.3-.4 2.1-.4s1.5.1 2.1.4c.6.3 1.2.6 1.6 1.1.5.5.8 1 1.1 1.6.2.7.4 1.3.4 2.1zm-1.5 0c0-.5-.1-1.1-.3-1.5-.2-.5-.4-.9-.7-1.2s-.7-.6-1.2-.8a4 4 0 00-3 0c-.5.2-.8.5-1.2.8-.3.3-.6.8-.7 1.2l-.3 1.5c0 .5.1 1.1.3 1.5s.4.9.7 1.2c.3.3.7.6 1.2.8a4 4 0 003 0l1.2-.8c.4-.3.6-.8.7-1.2l.3-1.5zm4.7-4.9l.1.8v.8l.6-.7.8-.6.9-.4 1-.1c1.3 0 2.2.3 2.8 1 .6.7.9 1.6.9 2.8v6.2h-1.4v-5.4c0-1.1-.2-1.9-.6-2.5s-1.1-.9-2.1-.9l-.6.1c-.3.1-.7.2-1 .5-.4.3-.7.6-1 1.1-.3.5-.4 1.2-.4 2.1v5H237v-8.6l-.1-1.2h1.5zm11.5 9.8h-1.4V41.1h1.4v15.8zm4.8-13.6c0 .3-.1.5-.3.7-.2.2-.4.3-.7.3s-.5-.1-.7-.3c-.2-.2-.3-.4-.3-.7s.1-.5.3-.7c.2-.2.4-.3.7-.3s.5.1.7.3c.2.2.3.4.3.7zm-.3 13.6H253v-9.8h1.4v9.8zm4.1-9.8l.1.8v.8l.6-.7.8-.6.9-.4 1-.1c1.3 0 2.2.3 2.8 1 .6.7.9 1.6.9 2.8v6.2h-1.4v-5.4c0-1.1-.2-1.9-.6-2.5s-1.1-.9-2.1-.9l-.6.1c-.3.1-.7.2-1 .5-.4.3-.7.6-1 1.1-.3.5-.4 1.2-.4 2.1v5h-1.4v-8.6l-.1-1.2h1.5zm10.8 5.3c0 .5.2 1 .4 1.4l.8 1.1c.3.3.7.6 1.1.7s.9.3 1.4.3c.7 0 1.4-.2 1.9-.5s.9-.7 1.2-1.2l1.1.9c-.6.7-1.2 1.3-1.9 1.6s-1.5.5-2.3.5c-.7 0-1.4-.1-2-.4-.6-.3-1.2-.6-1.6-1.1a9 9 0 01-1.1-1.6c-.3-.6-.4-1.3-.4-2.1 0-.7.1-1.4.4-2.1.3-.6.6-1.2 1-1.6.4-.5 1-.8 1.6-1.1a4 4 0 011.9-.4 4.5 4.5 0 013.5 1.5c.4.4.7 1 .9 1.5.2.6.3 1.2.3 1.9v.6h-8.2zm6.6-1.2c0-.9-.3-1.7-.8-2.3a3 3 0 00-2.3-.9c-.4 0-.9.1-1.3.3l-1.1.7-.8 1-.3 1.2h6.6z"></path>
    <path class="wordmark" fill="#3a99d8" d="M47.5 12.8h4.1v3.3h.1c.3-.6.6-1.1 1.1-1.6l1.5-1.2 1.8-.8a7 7 0 012-.3c.7 0 1.3.1 1.8.3l-.2 4.4-1-.2-1-.1c-2 0-3.5.6-4.6 1.7-1.1 1.1-1.6 2.9-1.6 5.2v10.8h-4.1V12.8zm18 12.3a5.8 5.8 0 002.2 4.6c.7.5 1.4 1 2.3 1.3s1.8.5 2.7.5c1.3 0 2.4-.3 3.3-.9.9-.6 1.8-1.4 2.6-2.3l3.1 2.4a11.6 11.6 0 01-9.6 4.4c-1.7 0-3.2-.3-4.6-.9a9.9 9.9 0 01-5.7-6 13.3 13.3 0 010-9c.6-1.4 1.3-2.6 2.3-3.6a11 11 0 018-3.3c1.9 0 3.5.3 4.9 1 1.3.7 2.4 1.5 3.3 2.6a8.7 8.7 0 011.8 3.6c.4 1.4.6 2.7.6 4.1v1.5H65.5zm12.9-3.3c0-.9-.2-1.7-.4-2.5-.3-.8-.6-1.4-1.2-2-.5-.6-1.2-1-1.9-1.3a7.2 7.2 0 00-5.5.1 8 8 0 00-2.1 1.5c-.6.6-1 1.3-1.3 2-.3.7-.5 1.5-.5 2.2h12.9zm8.1-9h4.1v3.1h.1a8 8 0 013.3-2.7 10.8 10.8 0 0112.3 2.3c1 1 1.7 2.2 2.2 3.6a13.2 13.2 0 010 8.9c-.5 1.4-1.3 2.6-2.2 3.6a10.9 10.9 0 01-8 3.3c-1.5 0-3-.3-4.4-1a6.9 6.9 0 01-3.1-2.7h-.1v15.9h-4.1V12.8zM97.7 16a7.3 7.3 0 00-5.2 2.1c-.6.7-1.1 1.4-1.4 2.4a9.4 9.4 0 000 6c.3.9.8 1.7 1.4 2.4a7.3 7.3 0 005.2 2.1 7.3 7.3 0 005.2-2.1c.6-.7 1.1-1.4 1.4-2.4a9.4 9.4 0 000-6c-.3-.9-.8-1.7-1.4-2.4a7.3 7.3 0 00-5.2-2.1zm33.7 18.4h-4.1V31h-.1a5.6 5.6 0 01-2.7 2.8 9.4 9.4 0 01-7.4.6c-.9-.3-1.8-.8-2.5-1.5s-1.3-1.5-1.7-2.6-.6-2.3-.6-3.7V12.8h4.1v12.8c0 1 .1 1.9.4 2.6s.6 1.3 1.1 1.7c.5.4 1 .8 1.6 1l1.8.3c.9 0 1.6-.1 2.4-.4a5 5 0 001.9-1.3c.5-.6 1-1.3 1.3-2.3.3-.9.5-2 .5-3.2V12.8h4.1v21.6zm17.5-18.1H143v11.6c0 .6.1 1.1.3 1.6.2.5.5.9.9 1.1.4.3 1 .4 1.8.4l1.5-.1 1.4-.5v3.7c-.5.3-1.1.5-1.9.6l-1.8.2c-1.6 0-2.8-.2-3.7-.7a4 4 0 01-1.9-1.7c-.4-.7-.7-1.5-.7-2.3l-.1-2.6V16.3h-4.7v-3.6h4.7v-6h4.1v6.1h5.9v3.5zm4.2-.9a11 11 0 014-2.4 14.4 14.4 0 018.7-.2c1.1.4 2.1.9 2.8 1.6a6 6 0 011.6 2.3c.3.9.5 1.8.5 2.7v13.1l.1 1.8h-3.6l-.1-3.3h-.1c-.9 1.4-2 2.4-3.2 3-1.2.6-2.7.9-4.3.9a9 9 0 01-5.3-1.6 5.3 5.3 0 01-1.6-2 6 6 0 01-.6-2.8c0-1.4.3-2.6.9-3.5.6-.9 1.5-1.7 2.6-2.3a13 13 0 013.8-1.3c1.4-.3 3-.4 4.6-.4h3v-.9A4.4 4.4 0 00164 16c-.6-.2-1.4-.4-2.3-.4l-2.1.2c-.6.2-1.1.3-1.6.6l-1.3.8-1.1.9-2.5-2.7zm11.5 8.6l-3 .2c-1 .1-1.9.3-2.8.6-.8.3-1.5.7-2 1.3s-.8 1.2-.8 2.1c0 1.2.4 2.1 1.3 2.7.8.5 2 .8 3.4.8a5.8 5.8 0 004.8-2.1c.5-.6.8-1.3 1-2 .2-.7.3-1.5.3-2.2V24h-2.2zm22.4-7.7h-5.9v11.6c0 .6.1 1.1.3 1.6.2.5.5.9.9 1.1.4.3 1 .4 1.8.4l1.5-.1 1.4-.5v3.7c-.5.3-1.1.5-1.9.6l-1.8.2c-1.6 0-2.8-.2-3.7-.7a4 4 0 01-1.9-1.7c-.4-.7-.7-1.5-.7-2.3l-.1-2.6V16.3h-4.7v-3.6h4.7v-6h4.1v6.1h5.9v3.5zM190.5 5c0-.8.3-1.5.9-2.1a2.9 2.9 0 014.2 0 2.9 2.9 0 010 4.2 2.9 2.9 0 01-4.2 0c-.6-.6-.9-1.3-.9-2.1zm.9 7.8h4.1v21.6h-4.1V12.8zm7.5 10.8a11.3 11.3 0 016.9-10.4c1.4-.6 2.9-.9 4.5-.9a11.3 11.3 0 110 22.6 11.3 11.3 0 01-11.4-11.3zm4.4 0c0 1.1.2 2.1.5 3 .3.9.8 1.7 1.4 2.4a7.3 7.3 0 005.2 2.1 7.3 7.3 0 005.2-2.1c.6-.7 1.1-1.4 1.4-2.4a9.4 9.4 0 000-6c-.3-.9-.8-1.7-1.4-2.4a7.3 7.3 0 00-5.2-2.1 7.3 7.3 0 00-5.2 2.1c-.6.7-1.1 1.4-1.4 2.4-.4.9-.5 1.9-.5 3zm21.6-10.8h4.1v3.3h.1c.5-1.2 1.4-2.1 2.7-2.8s2.7-1.1 4.4-1.1c1 0 2 .2 3 .5s1.8.8 2.5 1.5a7 7 0 011.7 2.6c.4 1 .6 2.3.6 3.7v13.9h-4.1V21.6c0-1-.1-1.9-.4-2.6-.3-.7-.6-1.3-1.1-1.7-.5-.4-1-.8-1.6-1L235 16c-.9 0-1.6.1-2.4.4a5 5 0 00-1.9 1.3c-.5.6-1 1.3-1.3 2.3-.3.9-.5 2-.5 3.2v11.1h-4.1V12.8zm37.9 10l-7.7-10.1h5.3l5.2 7.7 5.1-7.7h5l-7.4 10.1 8.7 11.5h-5.3l-6.4-9.1-6.4 9.1h-5.1l9-11.5z"></path>
</svg>